<mxfile host="app.diagrams.net" modified="2023-07-04T02:30:24.953Z" agent="Mozilla/5.0 (Windows NT 10.0; Win64; x64) AppleWebKit/537.36 (KHTML, like Gecko) Chrome/112.0.0.0 Safari/537.36" version="21.5.2" etag="8OcRCP42dU7KWG03DL_3" type="github">
  <diagram name="第 1 页" id="ak0wifYi2EFHWY24LaJE">
    <mxGraphModel>
      <root>
        <mxCell id="0" />
        <mxCell id="1" parent="0" />
      </root>
    </mxGraphModel>
  </diagram>
</mxfile>
